<svg width="49" height="49" viewBox="0 0 49 49" fill="none" xmlns="http://www.w3.org/2000/svg">
<g clip-path="url(#clip0_874_11221)">
<path d="M1.29828 0.187977C1.06331 0.310162 0.837745 0.516933 0.715561 0.7425L0.508789 1.10905V18.7317C0.508789 30.7715 0.536985 36.4483 0.602776 36.6269C0.734359 36.9746 11.5617 47.8208 11.947 47.9899C12.2008 48.1027 13.8926 48.1215 22.2951 48.1215H32.3329L32.7464 47.9054C33.5359 47.5012 33.4983 47.8772 33.4983 40.8939V34.7377L37.568 38.7792C41.1959 42.3977 41.694 42.8582 42.2486 43.1214C43.7994 43.8733 45.3689 43.7323 46.7506 42.7078C48.1416 41.6834 48.8747 39.907 48.5457 38.328C48.2732 37.0498 48.198 36.9558 43.5832 32.3316L39.3256 28.0458L39.6921 27.3033C40.303 26.0251 40.7354 24.5871 40.9327 23.0739C41.0925 21.8615 40.9891 19.2862 40.7448 18.1396C40.303 16.1282 39.4665 14.1451 38.3669 12.5003C37.3424 10.9683 35.3311 9.04158 33.9495 8.28028L33.4983 8.03592V4.55839C33.4983 0.582722 33.4983 0.601521 32.7464 0.206776L32.3329 0H17.0036C1.82461 0 1.68363 0 1.29828 0.187977ZM30.6787 4.78396V6.7389L29.6637 6.47573C22.9812 4.75576 15.7347 8.1769 12.5392 14.568C12.0222 15.5925 11.4771 17.2749 11.2609 18.4685C11.0448 19.7373 11.0354 22.3596 11.2609 23.5626C11.8061 26.589 13.0749 29.0703 15.2084 31.2884C16.6276 32.7546 17.9058 33.6757 19.7104 34.5403C23.047 36.1381 26.6373 36.4859 29.9738 35.5272C30.331 35.4238 30.6411 35.3392 30.6505 35.3392C30.6693 35.3392 30.6787 37.5761 30.6787 40.3206V45.3019H22.2669H13.855V40.5461C13.855 35.2359 13.8644 35.3486 13.2065 34.9445L12.8681 34.7283L8.10297 34.7001L3.32841 34.6719V18.7505V2.81962H17.0036H30.6787V4.78396ZM28.4136 9.16377C32.9062 10.0285 36.2522 12.9703 37.5868 17.2373C38.7616 20.9968 38.2541 24.6999 36.1206 27.886C35.4909 28.8259 33.8461 30.4707 32.9062 31.1004C30.8009 32.5102 28.6016 33.1775 26.0733 33.1775C24.1278 33.1775 22.4736 32.811 20.8383 32.0121C17.8589 30.5553 15.6689 28.121 14.5693 25.0194C13.0937 20.8746 14.2309 15.6677 17.2761 12.5567C19.2029 10.6018 21.7123 9.38934 24.5883 9.02279C25.5094 8.91 27.4456 8.98519 28.4136 9.16377ZM45.5287 38.3092C45.8295 38.7886 45.8577 39.3525 45.6039 39.8506C45.2374 40.5743 44.5043 40.9033 43.7242 40.6965C43.367 40.6025 42.8501 40.1138 39.4008 36.6833L35.4909 32.7734L36.6281 31.6267L37.7748 30.4707L41.5625 34.249C43.649 36.3167 45.4347 38.1495 45.5287 38.3092ZM11.0354 40.3864V43.2812L8.21575 40.4616C6.66496 38.9108 5.39613 37.6137 5.39613 37.5761C5.39613 37.5291 6.66496 37.501 8.21575 37.501H11.0354V40.3864Z" fill="#626262"/>
<path d="M24.2972 12.2654C22.4739 12.6789 21.1769 13.365 19.8798 14.6056C18.2069 16.2222 17.2764 18.2147 17.173 20.4516C16.985 24.2863 18.9118 27.6041 22.1825 29.0985C24.7484 30.2639 28.1131 30.1605 30.4816 28.8447C32.6809 27.6229 34.1001 25.7243 34.7392 23.1491C35.04 21.9366 35.04 19.9159 34.7392 18.8069C33.8934 15.7147 31.6001 13.3556 28.5455 12.4439C27.85 12.2372 27.5022 12.1902 26.3086 12.162C25.3123 12.1338 24.7202 12.1714 24.2972 12.2654ZM27.3706 15.0944C29.7391 15.5737 31.5531 17.3877 32.0324 19.7561C32.5869 22.4724 31.4403 25.0194 29.0342 26.401C28.0943 26.9462 27.38 27.1153 26.0266 27.106C25.0115 27.106 24.7014 27.0684 24.1939 26.8898C22.3329 26.2413 20.8103 24.7187 20.237 22.9329C19.9644 22.087 19.8986 20.6584 20.096 19.7373C20.4814 17.9422 21.6656 16.3914 23.254 15.6207C24.5792 14.9722 25.942 14.803 27.3706 15.0944Z" fill="#626262"/>
</g>
<defs>
<clipPath id="clip0_874_11221">
<rect width="48.1215" height="48.1215" fill="white" transform="translate(0.508789)"/>
</clipPath>
</defs>
</svg>
