<svg width="45" height="45" viewBox="0 0 45 45" fill="none" xmlns="http://www.w3.org/2000/svg">
<path d="M20.2147 1.09863C15.8905 1.63477 11.8915 3.58594 8.8329 6.63574C5.58095 9.8877 3.57705 14.2383 3.20791 18.8262L3.14638 19.5908L2.63662 19.8984C1.61709 20.5312 0.817281 21.665 0.562398 22.8428C0.386617 23.6777 0.386617 28.9775 0.571187 29.8213C0.92275 31.5088 2.37294 32.9766 4.0165 33.3193C5.58974 33.6445 6.95205 33.0645 7.6288 31.7725L7.86611 31.333V26.3232V21.3135L7.6288 20.874C7.38271 20.3994 6.78505 19.793 6.35439 19.5645C6.20498 19.4941 5.90615 19.3887 5.67763 19.3271L5.26455 19.2217L5.31728 18.8174C5.67763 16.0488 6.08193 14.6426 7.12783 12.5508C9.57998 7.65527 14.2558 4.21875 19.7401 3.28711C20.8651 3.10254 23.0624 3.03223 24.2138 3.15527C29.5048 3.72656 34.0663 6.50391 36.9315 10.8984C38.3114 13.0078 39.2431 15.4863 39.5507 17.8418C39.7528 19.4062 39.7792 19.2129 39.3134 19.3271C39.0936 19.3887 38.7948 19.4941 38.6454 19.5645C38.2147 19.793 37.6171 20.3994 37.371 20.874L37.1337 21.3135V26.3232V31.333L37.371 31.7725C37.6171 32.2471 38.2147 32.8535 38.6454 33.082C38.7948 33.1523 39.0936 33.2578 39.3134 33.3193L39.7265 33.416V34.752C39.7265 36.2285 39.621 36.8174 39.2167 37.5645C38.8739 38.1973 38.1005 38.9531 37.4589 39.2783C36.5712 39.7266 36.0263 39.8145 34.0575 39.8145H32.2997L32.0448 39.3223C31.7284 38.7246 31.0517 38.1182 30.41 37.8633C29.953 37.6787 29.786 37.6699 27.6415 37.6699C25.4442 37.6699 25.3388 37.6787 24.829 37.8721C24.0907 38.1709 23.2997 38.9619 23.036 39.6826C22.746 40.4385 22.7987 41.5811 23.1503 42.2578C23.4667 42.8818 24.0204 43.418 24.662 43.7344L25.1806 43.9893H27.6415H30.1024L30.6034 43.7432C31.1835 43.4619 31.7987 42.873 32.0888 42.3193L32.2909 41.9414L34.4003 41.8975C36.7733 41.8535 37.1073 41.8008 38.2763 41.2295C39.5507 40.5967 40.5702 39.5859 41.1854 38.3203C41.7216 37.2393 41.7743 36.9492 41.8183 34.9189L41.8534 33.0645L42.3544 32.748C43.4003 32.1064 44.1825 30.999 44.4374 29.8037C44.6132 28.9775 44.6132 23.6689 44.4374 22.8428C44.1825 21.665 43.3827 20.5312 42.372 19.9072L41.8622 19.5908L41.7567 18.5186C41.3612 14.4492 39.8759 10.9248 37.1952 7.73438C34.5409 4.56152 30.5243 2.18848 26.4286 1.3623C24.3983 0.958008 22.1483 0.861328 20.2147 1.09863ZM5.52822 21.5859L5.80068 21.8145V26.3232V30.8232L5.57216 31.0605C5.07119 31.5527 3.88466 31.2539 3.18154 30.4541C2.58388 29.7686 2.54873 29.5576 2.54873 26.3232C2.54873 23.0977 2.58388 22.8779 3.17275 22.2012C3.89345 21.3838 4.95693 21.1025 5.52822 21.5859ZM41.1063 21.6035C41.6073 21.8672 42.161 22.5264 42.3192 23.0537C42.4247 23.4053 42.4511 24.0732 42.4511 26.3232C42.4511 29.5576 42.4159 29.7686 41.8183 30.4541C41.1151 31.2539 39.9286 31.5527 39.4276 31.0605L39.1991 30.8232V26.3232V21.8232L39.4452 21.5771C39.6649 21.3574 39.7265 21.3398 40.2099 21.3838C40.4999 21.4014 40.9042 21.5068 41.1063 21.6035ZM30.0233 40.1133C30.2694 40.3594 30.3222 40.4824 30.3222 40.7725C30.3222 41.2383 30.1288 41.625 29.7948 41.792C29.4257 41.9766 25.8661 41.9854 25.497 41.8008C25.1366 41.6074 24.9608 41.2822 24.9608 40.8164C24.9608 40.4736 25.0048 40.3682 25.2597 40.1133L25.5585 39.8145H27.6415H29.7245L30.0233 40.1133Z" fill="#282828"/>
<path d="M15.0723 11.25C13.3145 11.4873 11.8994 12.7178 11.3633 14.458C11.2139 14.9414 11.2051 15.3896 11.2051 20.2148C11.2051 25.3828 11.2051 25.4531 11.3984 26.0683C11.9258 27.7295 13.332 28.9336 15.0547 29.1885L15.7314 29.2851V30.5332C15.7314 32.0098 15.8545 32.5371 16.3115 33.0469C16.9531 33.75 17.9814 33.9785 18.8076 33.5918C19.0801 33.4687 19.8799 32.748 21.3125 31.3418L23.4219 29.2676H26.4541C28.124 29.2676 29.7412 29.2236 30.0576 29.1797C30.7432 29.0742 31.71 28.6084 32.2725 28.125C32.835 27.6416 33.3623 26.8242 33.5996 26.0683C33.793 25.4531 33.793 25.3828 33.793 20.2148C33.793 15.3896 33.7842 14.9414 33.6348 14.458C33.1865 12.999 32.1143 11.8828 30.6816 11.4082L30.1016 11.206L22.8506 11.1973C18.8604 11.1885 15.3623 11.2148 15.0723 11.25ZM30.2334 13.5C30.8223 13.7725 31.165 14.0976 31.4375 14.6601L31.6836 15.1611V20.2148C31.6836 25.1543 31.6836 25.2773 31.499 25.6641C31.2354 26.2353 30.8926 26.6045 30.374 26.8769L29.9258 27.1142L26.2256 27.1582L22.5254 27.2021L20.2578 29.417C19.0186 30.6387 17.9639 31.6406 17.9199 31.6406C17.876 31.6406 17.8408 30.8057 17.8408 29.7949C17.8408 27.2373 17.8232 27.2109 16.083 27.1406C15.2744 27.1055 15.002 27.0615 14.7119 26.9121C14.1318 26.6133 13.8242 26.3057 13.5605 25.7695L13.3145 25.2685V20.2588C13.3145 16.3652 13.3408 15.1787 13.4287 14.9238C13.71 14.1416 14.4131 13.5264 15.2129 13.3682C15.4238 13.3242 18.8076 13.2978 22.7188 13.2978C29.7412 13.3154 29.8467 13.3154 30.2334 13.5Z" fill="#282828"/>
<path d="M16.9453 18.8965C16.3125 19.0898 15.8203 19.7402 15.8203 20.3906C15.8203 21.1025 16.3916 21.7793 17.1123 21.9287C17.6924 22.043 18.4746 21.6475 18.7646 21.085C18.9316 20.7685 18.9316 20.0127 18.7646 19.6963C18.5889 19.3535 18.1582 19.0107 17.7715 18.8965C17.4023 18.7998 17.2793 18.7998 16.9453 18.8965Z" fill="#282828"/>
<path d="M21.99 18.9316C21.5594 19.0811 21.1287 19.5469 21.0057 19.9951C20.698 21.0938 21.7967 22.21 22.8602 21.8936C23.7127 21.6387 24.2137 20.7861 23.9939 19.9951C23.8182 19.3535 23.1326 18.8262 22.4998 18.8262C22.3768 18.8262 22.1482 18.8701 21.99 18.9316Z" fill="#282828"/>
<path d="M27.1322 18.9316C26.7367 19.0723 26.4027 19.3623 26.227 19.7051C26.0687 20.0127 26.0687 20.7685 26.2357 21.085C26.5258 21.6475 27.308 22.043 27.8881 21.9287C28.5912 21.7793 29.1801 21.0674 29.1801 20.3818C29.1713 19.3535 28.0814 18.5801 27.1322 18.9316Z" fill="#282828"/>
</svg>
