<svg width="178" height="62" viewBox="0 0 178 62" fill="none" xmlns="http://www.w3.org/2000/svg">
<g clip-path="url(#clip0_763_8981)">
<path d="M20.2197 24.5988C20.2197 27.7952 18.7557 29.552 14.9249 29.552H11.6431V19.792C12.0579 19.792 13.4487 19.792 13.8635 19.792H15.0103C18.9021 19.7554 20.2197 21.4146 20.2197 24.5988ZM28.0155 37.3112C28.0155 32.2848 23.9163 30.467 18.9387 30.3572V30.162C23.1721 29.8082 26.6369 28.0392 26.6369 23.7692C26.6369 19.0234 22.7085 18.1328 18.3165 18.1328C13.0217 18.1328 6.82414 18.267 1.55374 18.1328V19.7676C2.66394 19.6822 5.37234 19.8408 5.37234 21.2316V41.4836C5.37234 42.8378 2.59074 43.0208 1.55374 43.0208V44.619C6.64114 44.4848 12.6923 44.619 17.8163 44.619C23.2087 44.619 28.0155 42.789 28.0155 37.3112ZM21.2323 36.7988C21.2323 40.959 19.7805 42.8988 14.7541 42.8988H11.6187V31.2722H15.0103C19.6097 31.2722 21.3055 32.8216 21.3055 36.7622L21.2323 36.7988Z" fill="#0079C1"/>
<path d="M62.1146 44.5702C59.6746 44.5702 57.381 44.5702 55.0142 44.5702V42.9842C56.0878 42.9842 59.0768 42.9842 59.0768 41.4836V22.6956H58.9914L48.292 44.9362H47.011L36.58 22.6468H36.5068V41.4836C36.5068 42.9598 39.4592 42.9842 40.5816 42.9842V44.619C37.617 44.5214 33.591 44.4604 30.6874 44.619V42.9842C31.8098 42.9842 34.3474 42.8988 34.3474 41.4836V21.2194C34.3474 19.8286 31.7244 19.7188 30.6874 19.7188V18.084C34.0668 18.2304 37.6658 18.2304 41.033 18.084L49.939 36.8842L59.0646 18.145C62.2976 18.2914 65.9576 18.2548 69.2272 18.145V19.7798C68.1536 19.7798 65.3354 19.853 65.3354 21.2804V41.4836C65.3354 42.9354 68.117 42.9842 69.2272 42.9842V44.619C66.8848 44.5458 64.4814 44.5702 62.1146 44.5702Z" fill="#0079C1"/>
<path d="M94.1761 31.3818C94.1761 36.457 93.6759 43.4842 86.1607 43.4842C78.6455 43.4842 78.1209 36.3838 78.1209 31.3818C78.1209 26.3798 78.6577 19.3282 86.1607 19.3282C93.6637 19.3282 94.1761 26.2944 94.1761 31.3818ZM101.191 31.3818C101.191 22.61 95.8353 17.6934 86.1607 17.6934C76.4861 17.6934 71.1303 22.5246 71.1303 31.3818C71.1303 40.239 76.4983 45.1068 86.1973 45.1068C95.8963 45.1068 101.191 40.1536 101.191 31.3818Z" fill="#0079C1"/>
<path d="M146.087 0.881836C140.055 0.881836 134.158 2.67063 129.142 6.02201C124.127 9.3734 120.217 14.1368 117.909 19.71C115.6 25.2831 114.996 31.4157 116.173 37.3321C117.35 43.2485 120.255 48.6831 124.52 52.9486C128.786 57.2141 134.221 60.1189 140.137 61.2958C146.053 62.4726 152.186 61.8686 157.759 59.5602C163.332 57.2517 168.096 53.3424 171.447 48.3267C174.798 43.311 176.587 37.4142 176.587 31.3818C176.587 23.2927 173.374 15.5349 167.654 9.81508C161.934 4.09522 154.176 0.881836 146.087 0.881836Z" fill="#ED1C24"/>
<path d="M145.148 22.0612L139.853 15.156C139.741 15.0138 139.598 14.8984 139.436 14.8182C139.273 14.738 139.095 14.695 138.914 14.6924C138.736 14.6909 138.561 14.731 138.402 14.8094C138.244 14.8878 138.105 15.0023 137.999 15.1438L131.691 23.0738V35.53L137.986 27.4902C138.101 27.3455 138.246 27.2285 138.412 27.1481C138.578 27.0677 138.76 27.026 138.944 27.026C139.128 27.026 139.31 27.0677 139.476 27.1481C139.642 27.2285 139.788 27.3455 139.902 27.4902L145.221 34.4442C145.323 34.5754 145.452 34.6827 145.599 34.7586C145.747 34.8345 145.909 34.8771 146.075 34.8834C146.239 34.8778 146.4 34.8355 146.546 34.7595C146.692 34.6835 146.818 34.5757 146.917 34.4442L152.236 27.4902C152.351 27.3409 152.499 27.2203 152.668 27.1377C152.837 27.0552 153.024 27.0129 153.212 27.0144C153.395 27.0152 153.576 27.0573 153.741 27.1376C153.905 27.2179 154.05 27.3342 154.164 27.478L160.434 35.5178V23.0738L154.09 15.1316C153.979 14.9947 153.84 14.8836 153.682 14.8056C153.524 14.7277 153.351 14.6849 153.175 14.6802C152.992 14.681 152.811 14.7231 152.647 14.8034C152.482 14.8837 152.337 15 152.224 15.1438L146.978 22.0612C146.863 22.1972 146.72 22.3066 146.559 22.3816C146.398 22.4566 146.222 22.4955 146.044 22.4955C145.867 22.4955 145.691 22.4566 145.53 22.3816C145.369 22.3066 145.226 22.1972 145.111 22.0612H145.148Z" fill="white"/>
<path d="M160.471 44.6554H131.667V35.5298H160.471V44.6554Z" fill="white"/>
</g>
<defs>
<clipPath id="clip0_763_8981">
<rect width="176.9" height="61" fill="white" transform="translate(0.370361 0.881836)"/>
</clipPath>
</defs>
</svg>
