<?xml version="1.0" standalone="no"?>
<!DOCTYPE svg PUBLIC "-//W3C//DTD SVG 20010904//EN"
 "http://www.w3.org/TR/2001/REC-SVG-20010904/DTD/svg10.dtd">
<svg version="1.0" xmlns="http://www.w3.org/2000/svg"
 width="260.000000pt" height="260.000000pt" viewBox="0 0 260.000000 260.000000"
 preserveAspectRatio="xMidYMid meet">
<metadata>
Created by potrace 1.14, written by Peter Selinger 2001-2017
</metadata>
<g transform="translate(0.000000,260.000000) scale(0.100000,-0.100000)"
fill="#000000" stroke="none">
<path d="M1746 1564 c-4 -9 1 -14 14 -14 23 0 27 15 6 23 -8 3 -17 -1 -20 -9z"/>
<path d="M1796 1565 c-3 -8 -1 -15 4 -15 13 0 22 18 11 24 -5 3 -11 -1 -15 -9z"/>
<path d="M1825 1557 c-5 -19 -11 -23 -31 -19 -20 4 -24 0 -24 -19 0 -13 4 -30
9 -38 8 -12 -46 -241 -60 -255 -3 -3 -14 30 -24 74 l-18 80 -39 0 c-21 0 -38
-1 -38 -3 0 -2 18 -57 40 -122 22 -65 40 -127 40 -137 0 -10 -10 -23 -22 -28
-36 -14 -1017 -33 -1033 -20 -8 7 -22 9 -32 7 -10 -3 -30 -8 -45 -11 -23 -5
-28 -12 -28 -36 0 -26 4 -29 44 -35 25 -4 50 -4 56 0 7 4 247 13 534 19 466
10 525 13 549 28 21 15 36 50 88 210 35 106 69 200 76 209 27 32 7 47 -62 50
l-30 1 31 9 c31 9 52 43 33 54 -4 3 -11 -5 -14 -18z"/>
<path d="M1850 1537 c0 -27 35 -35 44 -10 9 21 -3 31 -14 13 -8 -13 -10 -12
-10 3 0 9 -4 17 -10 17 -5 0 -10 -10 -10 -23z"/>
<path d="M510 1510 c0 -17 7 -20 45 -20 38 0 45 3 45 20 0 17 -7 20 -45 20
-38 0 -45 -3 -45 -20z"/>
<path d="M1900 1526 c0 -2 6 -9 14 -15 10 -9 15 -8 20 4 4 10 -1 15 -14 15
-11 0 -20 -2 -20 -4z"/>
<path d="M520 1300 l0 -181 33 3 32 3 3 92 c2 80 5 94 22 103 14 8 26 8 40 0
17 -9 20 -23 22 -103 l3 -92 33 -3 32 -3 0 104 c0 89 -3 108 -20 130 -26 32
-64 42 -100 23 l-29 -14 -3 57 c-3 55 -3 56 -35 59 l-33 3 0 -181z"/>
<path d="M1497 1473 c-4 -3 -7 -29 -7 -56 0 -43 -2 -48 -17 -41 -48 21 -116
-5 -133 -52 -16 -40 -12 -123 7 -154 26 -45 81 -62 123 -40 13 7 21 7 25 0 3
-5 19 -10 36 -10 l29 0 0 180 0 180 -28 0 c-16 0 -32 -3 -35 -7z m-25 -160
c35 -31 18 -133 -22 -133 -49 0 -70 90 -30 130 24 24 28 25 52 3z"/>
<path d="M856 1380 c-54 -17 -84 -61 -50 -74 24 -9 54 -7 54 3 0 16 38 23 60
11 38 -20 23 -37 -37 -43 -65 -7 -103 -38 -103 -83 0 -56 77 -92 132 -63 15 8
22 8 28 -1 4 -6 20 -10 36 -8 l29 3 3 94 c3 98 -7 129 -45 149 -30 16 -77 21
-107 12z m81 -156 c3 -9 -3 -24 -15 -36 -26 -26 -72 -18 -72 13 0 33 75 53 87
23z"/>
<path d="M1158 1376 c-16 -8 -28 -11 -28 -5 0 5 -16 9 -35 9 l-35 0 0 -130 0
-130 35 0 35 0 0 95 c0 84 2 95 20 105 14 8 26 8 40 0 17 -9 20 -23 22 -103
l3 -92 33 -3 32 -3 0 105 c0 95 -2 107 -22 130 -29 32 -66 40 -100 22z"/>
<path d="M1916 1380 c-44 -13 -66 -39 -66 -76 0 -38 23 -58 92 -79 48 -14 61
-39 27 -50 -14 -5 -30 0 -50 14 -40 30 -69 28 -69 -4 0 -33 51 -65 105 -65 22
0 54 9 73 20 26 16 32 26 32 54 0 44 -17 60 -82 81 -69 23 -71 24 -57 41 15
19 58 18 65 -1 8 -19 74 -21 74 -2 0 25 -32 56 -68 67 -42 11 -37 11 -76 0z"/>
</g>
</svg>
